<svg width="322" height="216" viewBox="0 0 322 216" fill="none" xmlns="http://www.w3.org/2000/svg">
<g clip-path="url(#clip0_13_7811)">
<path fill-rule="evenodd" clip-rule="evenodd" d="M45.35 27.12C44.6 26.61 43.73 26.33 42.81 26.33C42.55 26.33 42.29 26.35 42.03 26.4C41.86 26.43 41.71 26.43 41.54 26.4C41.23 26.35 40.91 26.33 40.6 26.33C39.4 26.33 38.27 26.69 37.3 27.31C35.07 27.68 33.36 29.62 33.36 31.96C33.36 32.06 33.36 32.16 33.36 32.25C32.74 32.06 32.08 31.96 31.4 31.96C31.05 31.96 30.7 31.99 30.36 32.04C28.99 29.63 26.4 28.01 23.43 28.01C20.46 28.01 18.13 29.48 16.71 31.69C14.98 29.89 12.55 28.76 9.85997 28.76C4.62997 28.76 0.379971 33 0.379971 38.24C0.379971 39.99 0.859971 41.64 1.68997 43.05C0.719971 43.25 -0.0200293 44.19 -0.0200293 45.31C-0.0200293 46.58 0.919971 47.61 2.07997 47.61C2.75997 47.61 3.38997 47.25 3.78997 46.65C3.96997 46.37 4.19997 46.17 4.46997 46.05C4.54997 46.1 4.61997 46.16 4.69997 46.21C4.47997 46.51 4.34997 46.89 4.34997 47.3C4.34997 47.35 4.34997 47.4 4.34997 47.45C4.38997 47.96 4.24997 48.41 3.92997 48.79C3.61997 49.16 3.20997 49.36 2.74997 49.36H2.73997C1.20997 49.36 -0.0300293 50.72 -0.0300293 52.39C-0.0300293 54.06 1.20997 55.42 2.73997 55.42C4.26997 55.42 5.50997 54.06 5.50997 52.39C5.50997 52.02 5.44997 51.66 5.32997 51.31C5.15997 50.83 5.18997 50.35 5.39997 49.9C5.60997 49.44 5.94997 49.14 6.38997 49C6.40997 49 6.42997 48.99 6.45997 48.98C6.41997 49.27 6.39997 49.56 6.39997 49.86C6.39997 52.82 8.51997 55.23 11.18 55.38C11.33 56.9 12.5 58.09 13.93 58.09C14.55 58.09 15.15 57.87 15.63 57.45C16.09 57.05 16.67 56.96 17.22 57.2C17.77 57.44 18.13 57.95 18.21 58.59C18.26 58.97 18.43 59.31 18.68 59.55C19.83 62.15 22.26 63.93 25.06 63.93C26.75 63.93 28.36 63.28 29.65 62.08C30.07 61.69 30.59 61.56 31.13 61.73C31.19 61.81 31.25 61.89 31.31 61.97C32.03 66.5 35.96 69.96 40.69 69.96C42.71 69.96 44.58 69.33 46.12 68.25C46.11 68.35 46.1 68.45 46.1 68.55C46.1 69.67 46.93 70.58 47.95 70.58C48.38 70.58 48.77 70.42 49.08 70.15C49.68 70.42 50.35 70.58 51.05 70.58C51.66 70.58 52.25 70.46 52.79 70.25C52.96 72.44 54.78 74.16 57.01 74.16C57.63 74.16 58.22 74.03 58.75 73.79C58.81 75.51 60.23 76.9 61.96 76.9C63.69 76.9 65.18 75.46 65.18 73.68C65.18 73.32 65.12 72.98 65.02 72.66C65.41 72.06 65.64 71.35 65.64 70.58C65.64 70.51 65.64 70.45 65.64 70.38C65.74 70.36 65.83 70.34 65.93 70.31C66.45 70.17 66.96 70.3 67.37 70.68C68.61 71.85 70.17 72.48 71.8 72.48C72.09 72.48 72.38 72.46 72.67 72.42C72.89 72.46 73.12 72.48 73.35 72.48C74.04 72.48 74.68 72.3 75.24 71.98C75.84 73.82 77.58 75.16 79.63 75.16C79.81 75.16 80 75.15 80.17 75.13C80.95 75.82 81.88 76.34 82.91 76.63C83.9 81.28 87.9 84.82 92.78 85.09C94.49 86.15 96.49 86.8 98.64 86.89C99.72 87.34 100.91 87.59 102.16 87.59C102.87 87.59 103.56 87.51 104.23 87.35C106.65 89.87 110.06 91.44 113.83 91.44C117.6 91.44 120.68 90.02 123.07 87.71C125.02 90.31 128.13 92 131.64 92C136.67 92 140.89 88.52 142.04 83.84C142.25 83.89 142.46 83.92 142.67 83.95C143.41 85.96 145.34 87.39 147.6 87.39C147.94 87.39 148.27 87.36 148.59 87.3C149.6 88.12 150.83 88.58 152.14 88.58C153.24 88.58 154.3 88.26 155.24 87.63C155.91 87.18 156.76 87.32 157.28 87.97C157.97 88.83 158.96 89.32 160.01 89.32C161 89.32 161.9 88.89 162.55 88.18C163.62 88.68 164.82 88.95 166.08 88.95C166.99 88.95 167.87 88.8 168.69 88.54C168.88 90.29 170.24 91.64 171.88 91.64C172.73 91.64 173.53 91.28 174.13 90.63C174.55 90.17 175.12 90.01 175.69 90.19C176.26 90.37 176.67 90.83 176.81 91.46C177.47 94.44 179.92 96.54 182.71 96.54C185.5 96.54 188.03 94.32 188.64 91.36C189.44 91.25 190.21 91.02 190.92 90.71C192.74 92.01 194.96 92.77 197.36 92.77C197.74 92.77 198.11 92.75 198.48 92.71C199.48 93.21 200.59 93.48 201.74 93.48C205.27 93.48 208.39 90.9 209.34 87.17C209.38 87.03 209.42 86.9 209.48 86.78C210 86.85 210.53 86.89 211.07 86.89C215.63 86.89 219.54 84.14 221.24 80.2C221.44 82.36 223.11 84.05 225.13 84.05C227.29 84.05 229.04 82.13 229.04 79.76C229.04 79.65 229.04 79.55 229.03 79.44C230.14 79.26 231.18 78.87 232.11 78.3C232.63 78.1 233.14 77.87 233.63 77.6C234.34 78.11 235.21 78.4 236.15 78.4C238.41 78.4 240.27 76.67 240.47 74.47C240.71 74.5 240.95 74.51 241.2 74.51C241.37 74.51 241.54 74.51 241.71 74.49C243.73 77.16 246.94 78.88 250.54 78.88C256.17 78.88 260.82 74.68 261.53 69.25C262.51 70.96 264.23 72.02 266.11 72.02C268.49 72.02 270.6 70.31 271.29 67.82C271.3 67.78 271.31 67.74 271.33 67.7C271.74 67.8 272.17 67.86 272.6 67.86C273.18 67.86 273.74 67.76 274.28 67.58C275.15 69.19 276.72 70.19 278.44 70.19C278.7 70.19 278.96 70.17 279.22 70.12C279.39 70.09 279.54 70.09 279.71 70.12C280.02 70.17 280.34 70.19 280.65 70.19C284.04 70.19 286.88 67.35 287.18 63.65C287.23 63.01 287.56 62.49 288.09 62.21C288.56 61.97 288.98 61.61 289.31 61.18C289.95 61.46 290.64 61.6 291.34 61.6C291.73 61.6 292.12 61.56 292.5 61.47C292.59 61.45 292.67 61.44 292.75 61.43C293.48 62.52 294.65 63.18 295.91 63.18C297.11 63.18 298.21 62.58 298.94 61.62H299C300.45 61.62 301.78 60.84 302.59 59.53C303.01 58.85 303.78 58.58 304.49 58.87C305.19 59.16 305.61 59.92 305.52 60.74C305.52 60.8 305.51 60.87 305.51 60.93C305.51 61.74 306.11 62.39 306.84 62.39C307.57 62.39 308.17 61.74 308.17 60.93C308.17 60.23 307.71 59.62 307.08 59.49C306.53 59.38 306.1 59.01 305.89 58.44C305.67 57.87 305.73 57.28 306.04 56.77C306.19 56.53 306.31 56.27 306.4 55.99C306.81 56.11 307.23 56.17 307.66 56.17C309.87 56.17 311.8 54.52 312.34 52.19C312.36 52.2 312.37 52.21 312.39 52.22C312.79 52.49 313.03 52.89 313.11 53.39C313.3 54.55 314.23 55.39 315.3 55.39C316.06 55.39 316.77 54.96 317.18 54.26C317.53 53.66 318.14 53.36 318.79 53.47C318.9 53.49 319.02 53.5 319.13 53.5C320.29 53.5 321.23 52.47 321.23 51.2C321.23 49.93 320.3 48.91 319.14 48.9C319.59 48.22 319.91 47.45 320.06 46.61C320.77 46.06 321.23 45.16 321.23 44.13C321.23 43.31 320.93 42.57 320.45 42.02C320.47 41.84 320.47 41.65 320.47 41.46C320.47 37.79 317.49 34.81 313.82 34.81C313.18 34.81 312.55 34.9 311.96 35.07C310.82 32.87 308.53 31.37 305.89 31.37C304.51 31.37 303.22 31.78 302.15 32.49C302.04 32.48 301.93 32.47 301.81 32.47C300.91 32.47 300.1 32.91 299.61 33.59C298.58 32.96 297.4 32.6 296.14 32.6C295.78 32.6 295.42 32.63 295.07 32.69C294.08 30.57 291.94 29.11 289.45 29.11C289.04 29.11 288.64 29.15 288.25 29.23C287.51 28.45 286.51 27.92 285.39 27.78C285.47 27.35 285.51 26.91 285.51 26.46C285.51 23.37 283.54 20.74 280.79 19.76C279.08 16.99 276.02 15.15 272.52 15.15C267.17 15.15 262.82 19.48 262.81 24.83C262.81 24.71 262.81 24.59 262.81 24.46C262.81 20.98 260.51 18.05 257.35 17.09C256.05 14.17 253.12 12.12 249.72 12.12C247.49 12.12 245.47 12.99 243.97 14.42C242.6 13.3 240.85 12.62 238.95 12.62C235.6 12.62 232.73 14.7 231.57 17.65C230.86 17.33 230.07 17.16 229.24 17.16C228.89 17.16 228.54 17.19 228.21 17.25C227.45 16.9 226.6 16.71 225.71 16.71C224.82 16.71 223.94 16.91 223.16 17.27C222.57 16.96 221.91 16.76 221.21 16.72C219.95 11.62 215.35 7.84001 209.86 7.84001C208.44 7.84001 207.08 8.09001 205.82 8.56001C203.26 4.93001 199.03 2.56001 194.24 2.56001C187.65 2.56001 182.11 7.06001 180.53 13.15C179.67 12.75 178.73 12.54 177.77 12.54C177.27 12.54 176.78 12.6 176.29 12.71C175.55 12.88 174.82 12.49 174.5 11.74C173.52 9.44001 171.41 7.97001 169.09 7.97001C167.99 7.97001 166.93 8.29001 165.99 8.92001C165.32 9.37001 164.47 9.23001 163.95 8.58001C163.26 7.72001 162.27 7.23001 161.22 7.23001C159.21 7.23001 157.58 9.02001 157.58 11.22C157.58 11.38 157.58 11.54 157.61 11.7C157.68 12.36 157.44 12.96 156.94 13.34C156.45 13.72 155.84 13.77 155.3 13.48C154.59 13.09 153.85 12.75 153.1 12.46C152.65 12.28 152.33 11.94 152.15 11.46C151.97 10.97 151.99 10.48 152.21 10.02C152.44 9.53001 152.55 8.99001 152.55 8.43001C152.55 6.48001 151.11 4.91001 149.34 4.91001C148.49 4.91001 147.69 5.27001 147.09 5.92001C146.67 6.38001 146.1 6.54001 145.53 6.36001C144.96 6.18001 144.55 5.72001 144.41 5.09001C143.75 2.11001 141.3 0.0100098 138.51 0.0100098C135.15 0.0100098 132.43 2.99001 132.43 6.67001C132.43 6.86001 132.43 7.06001 132.45 7.25001C132.49 7.70001 132.38 8.11001 132.12 8.47001C131.82 8.90001 131.57 9.38001 131.4 9.88001C131.22 10.39 130.88 10.75 130.41 10.92C129.94 11.09 129.47 11.03 129.05 10.74C128.86 10.61 128.64 10.52 128.41 10.5C127.75 10.42 127.23 9.95001 127.04 9.25001C126.05 5.59001 122.97 3.06001 119.47 3.06001C115.97 3.06001 112.82 5.64001 111.87 9.37001C111.73 9.93001 111.38 10.34 110.88 10.54C107.92 11.75 105.76 14.63 105.28 18.06C105.17 18.87 104.58 19.48 103.83 19.55C103.19 19.61 102.56 19.77 101.96 20.02C101.38 20.26 100.77 20.14 100.31 19.68C99.85 19.22 99.68 18.56 99.84 17.91C99.93 17.54 99.98 17.15 99.98 16.76C99.98 14.39 98.23 12.47 96.07 12.47C93.91 12.47 92.16 14.39 92.16 16.76C91.58 16.78 91.01 16.86 90.47 17C90.12 16.85 89.74 16.76 89.34 16.76C87.87 16.76 86.66 17.89 86.53 19.33C86.36 19.3 86.19 19.28 86.02 19.28C84.69 19.28 83.57 20.25 83.21 21.58C82.9 21.55 82.58 21.54 82.26 21.54C81.88 21.54 81.5 21.56 81.13 21.6C81.59 20.97 81.86 20.19 81.86 19.35C81.86 17.22 80.13 15.49 78 15.49C75.87 15.49 74.14 17.22 74.14 19.35C73.1 17.59 71.18 16.41 68.99 16.41C65.69 16.41 63.01 19.09 63.01 22.39C63.01 22.99 63.1 23.57 63.26 24.12C62.62 23.68 61.85 23.43 61.02 23.43C59.63 23.43 58.4 24.15 57.69 25.23C56.91 24.76 56.02 24.5 55.09 24.5C53.9 24.5 52.77 24.93 51.86 25.67C51.3 25.55 50.73 25.48 50.13 25.48C48.31 25.48 46.63 26.09 45.29 27.12H45.35ZM50.3 73.59C51.15 73.59 51.84 74.28 51.84 75.13C51.84 75.98 51.15 76.67 50.3 76.67C49.45 76.67 48.76 75.98 48.76 75.13C48.76 74.28 49.45 73.59 50.3 73.59Z" fill="#663300"/>
<path fill-rule="evenodd" clip-rule="evenodd" d="M200.1 69.88C198.33 69.88 196.9 71.31 196.9 73.08C196.9 74.85 198.33 76.28 200.1 76.28C201.87 76.28 203.3 74.85 203.3 73.08C203.3 71.31 201.87 69.88 200.1 69.88Z" fill="#8C4A08"/>
<path fill-rule="evenodd" clip-rule="evenodd" d="M207.35 66.82C206.26 66.82 205.38 67.7 205.38 68.79C205.38 69.88 206.26 70.76 207.35 70.76C208.44 70.76 209.32 69.88 209.32 68.79C209.32 67.7 208.44 66.82 207.35 66.82Z" fill="#8C4A08"/>
<path fill-rule="evenodd" clip-rule="evenodd" d="M299.93 38.75C299.76 38.75 299.59 38.76 299.43 38.79C298.86 37.91 297.87 37.32 296.75 37.32C295.19 37.32 293.89 38.45 293.62 39.93C293.15 39.8 292.66 39.73 292.16 39.73C292.1 39.73 292.05 39.73 291.99 39.73C291.75 39 291.28 38.37 290.67 37.94C290.55 37.55 290.38 37.19 290.15 36.86C291.29 36.65 292.15 35.66 292.15 34.46C292.15 33.11 291.06 32.02 289.71 32.02C288.36 32.02 287.27 33.11 287.27 34.46C287.27 34.57 287.27 34.67 287.29 34.77C286.4 33.46 284.9 32.6 283.2 32.6C283.06 32.6 282.93 32.6 282.8 32.62C282.16 32.16 281.37 31.89 280.52 31.89C279.59 31.89 278.74 32.21 278.07 32.75C277.67 32.67 277.26 32.62 276.83 32.62C276.01 32.62 275.23 32.78 274.53 33.08C274.51 33.11 274.48 33.14 274.46 33.18C274.37 33.23 274.28 33.28 274.2 33.34C274.16 33.32 274.13 33.31 274.09 33.3C273.88 33.41 273.67 33.53 273.47 33.67C273.52 33.49 273.57 33.31 273.6 33.12C272.77 32.84 271.89 32.68 270.97 32.64C268.04 32.52 265.42 33.68 263.6 35.85C262.29 36.71 261.27 37.86 260.58 39.2C258.85 38.05 256.74 37.52 254.52 37.76C252.62 37.96 250.91 38.7 249.55 39.85C248.94 39.47 248.28 39.16 247.56 38.92C246.48 38.56 245.41 38.39 244.35 38.41C243.47 37.62 242.43 37.02 241.23 36.59C238.82 35.74 236.41 35.88 234.16 36.99C232.78 37.52 231.59 38.33 230.65 39.36C229.03 39.27 227.4 39.61 225.92 40.39C224.32 40.66 222.86 41.35 221.64 42.39C220.67 42.27 219.67 42.32 218.66 42.53C216.22 42.55 213.97 43.53 212.32 45.13C211.05 45.02 209.75 45.18 208.47 45.63C204.45 46.1 201.29 49.05 200.53 53.02C198.81 53.73 197.42 54.85 196.44 56.32C195.24 54.58 193.47 53.33 191.38 52.76C189.32 51.87 187.11 51.78 184.89 52.52C182.5 53.32 180.7 54.88 179.61 57.07C178.82 56.55 177.94 56.15 176.98 55.88C176.71 55.8 176.44 55.74 176.18 55.69C175.11 53.66 173.42 52.21 171.18 51.41C170.85 51.29 170.52 51.15 170.2 50.99C167.09 49.45 163.64 49.72 160.81 51.72C160.1 52.22 159.48 52.8 158.95 53.43C158.08 53.39 157.19 53.48 156.33 53.69C154.41 51.58 151.61 50.47 148.68 50.76C147.9 50.12 147.04 49.63 146.13 49.29C144.77 45.2 140.83 42.66 136.6 43.04C134.79 40.74 131.97 39.44 128.88 39.61C128.83 39.61 128.78 39.61 128.72 39.61C128.55 39.61 128.37 39.59 128.2 39.56C126.5 39.23 124.95 39.34 123.33 39.93C120.96 40.26 118.92 41.42 117.5 43.18C115.89 42.46 114.11 42.22 112.39 42.47C111.58 42.28 110.73 42.2 109.85 42.23C109.81 42.23 109.77 42.23 109.73 42.23C109.57 42.23 109.42 42.22 109.26 42.19C107.71 41.94 106.19 42.09 104.8 42.56C104.5 42.31 104.17 42.08 103.83 41.87C101.89 40.51 99.72 39.97 97.45 40.28C96 40.14 94.62 40.34 93.26 40.9C91.64 40.76 90.1 41.02 88.67 41.71C87.4 40.94 86.01 40.51 84.56 40.44C83.32 37.48 80.6 35.34 77.24 34.92C74.85 34.62 72.55 35.23 70.72 36.54C70.02 36.36 69.29 36.26 68.54 36.26C68.21 35.87 67.84 35.5 67.44 35.15C65.42 33.42 62.94 32.67 60.45 32.97C60.24 32.92 60.04 32.88 59.83 32.84C59.73 32.96 59.63 33.09 59.53 33.22C58.92 33.1 58.29 33.04 57.65 33.04C56.49 33.04 55.38 33.24 54.35 33.62C54.15 33.72 53.96 33.82 53.77 33.93C53.71 33.93 53.64 33.93 53.58 33.94C53.3 34.07 53.02 34.22 52.75 34.37C52.63 34.28 52.5 34.19 52.36 34.12C51.93 34.22 51.5 34.35 51.09 34.52C51.05 34.41 51 34.31 50.95 34.2C50.92 34.09 50.88 33.99 50.85 33.88C49.73 34.04 48.85 34.93 48.7 36.04C48.08 35.56 47.31 35.27 46.46 35.27C44.45 35.27 42.83 36.9 42.83 38.9C42.83 39.8 43.16 40.62 43.7 41.26C42.93 41.66 42.27 42.24 41.77 42.94C41.45 42.6 41.03 42.34 40.56 42.21C40.71 41.81 40.8 41.37 40.8 40.92C40.8 38.91 39.17 37.29 37.17 37.29C35.17 37.29 33.54 38.92 33.54 40.92C33.54 42.92 35.17 44.55 37.17 44.55C37.17 44.62 37.17 44.7 37.17 44.77C37.17 46.24 38.36 47.43 39.83 47.43C40.22 47.43 40.59 47.35 40.93 47.19C41.47 49.57 43.6 51.35 46.14 51.35C47 51.35 47.82 51.15 48.54 50.78C48.61 52.3 49.87 53.52 51.41 53.52C51.45 53.52 51.5 53.52 51.54 53.52C52.14 55.35 53.87 56.67 55.9 56.67C57.69 56.67 59.23 55.65 59.99 54.16C60.43 54.87 61.07 55.45 61.83 55.8C62.14 59.26 65.04 61.97 68.58 61.97C68.91 61.97 69.24 61.95 69.55 61.9C69.83 61.95 70.12 61.97 70.41 61.97C72.42 61.97 74.16 60.86 75.07 59.23C75.8 61.62 78.02 63.36 80.65 63.36C83 63.36 85.03 61.97 85.95 59.96C86.6 60.3 87.33 60.5 88.11 60.5C90.05 60.5 91.71 59.3 92.39 57.6C92.61 57.72 92.84 57.82 93.08 57.9C93.14 58.62 93.37 59.29 93.74 59.87C94.1 61.14 95.26 62.07 96.64 62.07C96.91 62.07 97.17 62.03 97.42 61.97C97.45 61.97 97.49 61.97 97.52 61.97C98.63 61.97 99.64 61.57 100.42 60.9C101.08 61.46 101.93 61.79 102.85 61.79C102.9 61.79 102.95 61.79 103 61.79C102.72 62.31 102.57 62.91 102.57 63.54C102.57 65.62 104.26 67.3 106.33 67.3C108.29 67.3 109.91 65.79 110.08 63.88C110.53 64.01 111.01 64.07 111.5 64.07C111.62 64.07 111.73 64.07 111.85 64.06C111.85 64.13 111.87 64.19 111.88 64.26C110.8 65.1 110.1 66.41 110.1 67.88C110.1 70.41 112.15 72.46 114.68 72.46C117.21 72.46 119.26 70.41 119.26 67.88C119.26 67.45 119.2 67.04 119.09 66.65C119.69 66.88 120.34 67.03 121.01 67.09C121.48 70.21 123.63 72.77 126.51 73.84C127.44 77.16 130.49 79.59 134.1 79.59C137.71 79.59 140.69 77.21 141.66 73.95C142.06 73.91 142.43 73.77 142.76 73.57C142.95 74.08 143.22 74.55 143.55 74.98C143.53 75.16 143.53 75.35 143.53 75.53C143.53 79.05 146.39 81.91 149.91 81.91C152.91 81.91 155.43 79.84 156.11 77.05C156.83 77.76 157.82 78.2 158.92 78.2C161.13 78.2 162.92 76.41 162.92 74.2C162.92 73.55 162.77 72.94 162.49 72.4C163.16 72.16 163.82 71.88 164.46 71.56C164.44 71.73 164.43 71.91 164.43 72.08C164.43 74.49 166.38 76.44 168.79 76.44C170.09 76.44 171.26 75.87 172.06 74.97C173.01 75.55 174.13 75.89 175.33 75.89C177.85 75.89 180.03 74.41 181.03 72.26C181.52 72.36 182.02 72.42 182.53 72.42C184.55 72.42 186.37 71.59 187.67 70.26C188.25 70.64 188.95 70.86 189.69 70.86C191.75 70.86 193.42 69.19 193.42 67.13C193.42 66.44 193.23 65.79 192.9 65.24C193 65.02 193.08 64.79 193.15 64.55C193.59 64.63 194.05 64.67 194.51 64.67C196.32 64.67 197.99 64.07 199.33 63.06C200.17 62.71 200.84 62.01 201.15 61.15C201.38 61.16 201.6 61.17 201.83 61.17C202.61 61.17 203.37 61.09 204.11 60.95C204.68 61.17 205.29 61.32 205.92 61.4C206.79 64.01 209.25 65.89 212.15 65.89C213.98 65.89 215.63 65.14 216.82 63.93C217.26 64.36 217.86 64.62 218.52 64.62C219.25 64.62 219.9 64.3 220.35 63.79C220.5 63.79 220.66 63.79 220.81 63.79C221.46 63.79 222.1 63.74 222.72 63.64C223.14 64.67 224.16 65.4 225.34 65.4C226.23 65.4 227.02 64.99 227.54 64.36C227.93 64.56 228.37 64.68 228.83 64.68C230.31 64.68 231.53 63.51 231.59 62.04C231.72 61.96 231.85 61.88 231.97 61.79C232.3 61.87 232.65 61.92 233 61.92C233.3 61.92 233.6 61.89 233.88 61.83C234.8 62.28 235.83 62.54 236.92 62.54C237.3 62.54 237.66 62.51 238.02 62.45C239.15 63.24 240.52 63.7 242.01 63.7C243.75 63.7 245.34 63.06 246.56 62.01C247.06 62.13 247.58 62.2 248.11 62.2C251.44 62.2 254.17 59.66 254.46 56.41C254.96 57.82 256.31 58.82 257.88 58.82C258.05 58.82 258.22 58.81 258.38 58.79C258.63 58.83 258.88 58.85 259.14 58.85C260.27 58.85 261.3 58.47 262.13 57.84C262.84 58.8 263.99 59.43 265.28 59.43C267.45 59.43 269.2 57.67 269.2 55.51C269.2 55.17 269.16 54.83 269.07 54.51C269.49 54.69 269.95 54.79 270.44 54.79C271.09 54.79 271.7 54.61 272.21 54.3C272.9 55.12 273.93 55.64 275.09 55.64C275.44 55.64 275.79 55.59 276.11 55.5C277.37 56.57 279 57.22 280.78 57.22C284.66 57.22 287.83 54.15 287.99 50.3C288.15 49.98 288.28 49.64 288.37 49.29C289.35 50.19 290.66 50.74 292.1 50.74C295.15 50.74 297.62 48.27 297.62 45.22C297.62 44.65 297.53 44.09 297.37 43.58C297.93 44.36 298.84 44.87 299.87 44.87C301.57 44.87 302.94 43.49 302.94 41.8C302.94 40.11 301.56 38.73 299.87 38.73L299.93 38.75Z" fill="#8C4A08"/>
<path fill-rule="evenodd" clip-rule="evenodd" d="M48.35 30.1C48.7 29.87 49.04 29.61 49.36 29.32C49.54 29.29 49.71 29.26 49.89 29.22C50.91 29.53 51.98 29.64 53.08 29.56C56.14 31.07 59.71 30.78 62.55 28.69C63.33 28.12 64 27.45 64.54 26.71C65.21 26.73 65.87 26.69 66.5 26.58C66.94 27.64 67.59 28.62 68.45 29.5C70.62 31.73 73.52 32.67 76.51 32.17C78.82 34.05 81.74 34.66 84.68 33.86C87.89 32.98 90.22 30.66 91.11 27.46C91.14 27.35 91.25 27.27 91.36 27.27C91.39 27.27 91.43 27.27 91.46 27.29C94.45 28.51 97.59 28.15 100.23 26.29C100.52 26.08 100.8 25.86 101.06 25.63C102.2 26.11 103.44 26.37 104.75 26.37C107.44 26.37 109.88 25.26 111.62 23.46C111.84 23.62 112.07 23.77 112.31 23.92C114.6 25.31 117.09 25.63 119.66 24.89C119.78 24.86 119.89 24.84 120.01 24.84C120.34 24.84 120.63 24.96 120.87 25.18C124.24 28.39 129.39 28.6 133 25.67L133.03 25.64C135.17 23.91 136.33 21.57 136.43 18.82C136.51 16.43 138.48 14.54 140.88 14.54C142.66 14.54 144.26 15.59 144.96 17.22C146.58 20.95 150.26 23.11 154.31 22.7C154.37 22.7 154.43 22.7 154.48 22.7C155.08 22.7 155.61 23.02 155.9 23.54C157.4 26.25 159.91 27.91 162.99 28.23C163.67 28.3 164.33 28.3 164.97 28.23C165.25 28.82 165.61 29.39 166.03 29.94C167.93 32.41 170.67 33.67 173.77 33.52C173.93 33.52 174.09 33.51 174.25 33.51C174.42 33.51 174.59 33.51 174.76 33.52C176.74 33.63 178.52 33.17 180.13 32.14C182.43 34.23 185.5 34.99 188.59 34.18C192.01 33.29 194.47 30.73 195.24 27.29C197.8 28.56 200.53 28.6 203.13 27.41C203.25 27.36 203.36 27.34 203.49 27.34C203.5 27.34 203.52 27.34 203.53 27.34C205.11 27.39 206.57 27.08 207.88 26.43C209 28.42 210.83 29.89 213.15 30.61C215.96 31.48 218.8 31.02 221.11 29.39C223.71 30.4 226.54 30.16 229.04 28.68C230.81 27.63 232.11 26.12 232.85 24.35C234.88 25.55 237.32 25.92 239.77 25.3C239.94 25.26 240.11 25.21 240.28 25.16C240.73 25.25 241.19 25.3 241.66 25.32C241.78 25.32 241.9 25.32 242.03 25.32C242.06 25.35 242.09 25.37 242.12 25.4C244.25 27.22 246.89 27.95 249.53 27.5C251.12 28.39 252.89 28.74 254.81 28.56C255.46 28.5 256.09 28.38 256.68 28.2C257.62 28.75 258.68 29.12 259.84 29.32C261.93 29.67 263.94 29.34 265.69 28.39C267.71 29.86 270.23 30.43 272.83 29.92C272.86 29.92 272.9 29.92 272.93 29.92C273.01 29.92 273.08 29.93 273.15 29.98C274.2 30.6 275.31 31 276.44 31.18C275.66 31.77 275 32.45 274.46 33.22C274.37 33.27 274.28 33.32 274.2 33.38C273.21 32.97 272.12 32.73 270.97 32.68C268.04 32.56 265.42 33.72 263.6 35.89C262.29 36.75 261.27 37.9 260.58 39.24C258.85 38.09 256.74 37.56 254.52 37.8C252.62 38 250.91 38.74 249.55 39.89C248.94 39.51 248.28 39.2 247.56 38.96C246.48 38.6 245.41 38.43 244.35 38.45C243.47 37.66 242.43 37.06 241.23 36.63C238.82 35.78 236.41 35.92 234.16 37.03C232.78 37.56 231.59 38.37 230.65 39.4C229.03 39.31 227.4 39.65 225.92 40.43C224.32 40.7 222.86 41.39 221.64 42.43C220.67 42.31 219.67 42.36 218.66 42.57C216.22 42.59 213.97 43.57 212.32 45.17C211.05 45.06 209.75 45.22 208.47 45.67C204.45 46.14 201.29 49.09 200.53 53.06C198.81 53.77 197.42 54.89 196.44 56.36C195.24 54.62 193.47 53.37 191.38 52.8C189.32 51.91 187.11 51.82 184.89 52.56C182.5 53.36 180.7 54.92 179.61 57.11C178.82 56.59 177.94 56.19 176.98 55.92C176.71 55.84 176.44 55.78 176.18 55.73C175.11 53.7 173.42 52.25 171.18 51.45C170.85 51.33 170.52 51.19 170.2 51.03C167.09 49.49 163.64 49.76 160.81 51.76C160.1 52.26 159.48 52.84 158.95 53.47C158.08 53.43 157.19 53.52 156.33 53.73C154.41 51.62 151.61 50.51 148.68 50.8C147.9 50.16 147.04 49.67 146.13 49.33C144.77 45.24 140.83 42.7 136.6 43.08C134.79 40.78 131.97 39.48 128.88 39.65C128.83 39.65 128.78 39.65 128.72 39.65C128.55 39.65 128.37 39.63 128.2 39.6C126.5 39.27 124.95 39.38 123.33 39.97C120.96 40.3 118.92 41.46 117.5 43.22C115.89 42.5 114.11 42.26 112.39 42.51C111.58 42.32 110.73 42.24 109.85 42.27C109.81 42.27 109.77 42.27 109.73 42.27C109.57 42.27 109.42 42.26 109.26 42.23C107.71 41.98 106.19 42.13 104.8 42.6C104.5 42.35 104.17 42.12 103.83 41.91C101.89 40.55 99.72 40.01 97.45 40.32C96 40.18 94.62 40.38 93.26 40.94C91.64 40.8 90.1 41.06 88.67 41.75C87.4 40.98 86.01 40.55 84.56 40.48C83.32 37.52 80.6 35.38 77.24 34.96C74.85 34.66 72.55 35.27 70.72 36.58C70.02 36.4 69.29 36.3 68.54 36.3C68.21 35.91 67.84 35.54 67.44 35.19C65.42 33.46 62.94 32.71 60.45 33.01C58.18 32.46 55.79 32.8 53.77 33.96C52.85 34.02 51.95 34.22 51.09 34.56C51.05 34.45 51 34.35 50.95 34.24C50.45 32.6 49.56 31.19 48.35 30.11V30.1Z" fill="black"/>
<path fill-rule="evenodd" clip-rule="evenodd" d="M88.53 31.78C89.76 30.65 90.66 29.19 91.14 27.46C91.17 27.35 91.28 27.27 91.39 27.27C91.42 27.27 91.46 27.27 91.49 27.29C94.48 28.51 97.62 28.15 100.26 26.29C100.55 26.08 100.83 25.86 101.09 25.63C102.23 26.11 103.47 26.37 104.78 26.37C107.47 26.37 109.91 25.26 111.65 23.46C111.87 23.62 112.1 23.77 112.34 23.92C114.63 25.31 117.12 25.63 119.69 24.89C119.81 24.86 119.92 24.84 120.04 24.84C120.37 24.84 120.66 24.96 120.9 25.18C124.27 28.39 129.42 28.6 133.03 25.67L133.06 25.64C135.2 23.91 136.36 21.57 136.46 18.82C136.54 16.43 138.51 14.54 140.91 14.54C142.69 14.54 144.29 15.59 144.99 17.22C146.61 20.95 150.29 23.11 154.34 22.7C154.4 22.7 154.46 22.7 154.51 22.7C155.11 22.7 155.64 23.02 155.93 23.54C157.43 26.25 159.94 27.91 163.02 28.23C163.7 28.3 164.36 28.3 165 28.23C165.28 28.82 165.64 29.39 166.06 29.94C167.96 32.41 170.7 33.67 173.8 33.52C173.96 33.52 174.12 33.51 174.28 33.51C174.45 33.51 174.62 33.51 174.79 33.52C176.77 33.63 178.55 33.17 180.16 32.14C182.46 34.23 185.53 34.99 188.62 34.18C192.04 33.29 194.5 30.73 195.27 27.29C197.83 28.56 200.56 28.6 203.16 27.41C203.28 27.36 203.39 27.34 203.52 27.34C203.53 27.34 203.55 27.34 203.56 27.34C205.14 27.39 206.6 27.08 207.91 26.43C209.03 28.42 210.86 29.89 213.18 30.61C215.99 31.48 218.83 31.02 221.14 29.39C223.74 30.4 226.57 30.16 229.07 28.68C230.84 27.63 232.14 26.12 232.88 24.35C234.91 25.55 237.35 25.92 239.8 25.3C239.97 25.26 240.14 25.21 240.31 25.16C240.76 25.25 241.22 25.3 241.69 25.32C241.81 25.32 241.93 25.32 242.06 25.32C242.09 25.35 242.12 25.37 242.15 25.4C244.28 27.22 246.92 27.95 249.56 27.5C250.38 27.96 251.26 28.28 252.18 28.45C251.22 28.81 250.35 29.33 249.58 29.97C248.97 29.59 248.31 29.28 247.59 29.04C246.51 28.68 245.44 28.51 244.38 28.53C243.5 27.74 242.46 27.14 241.26 26.71C238.85 25.86 236.44 26 234.19 27.11C232.81 27.64 231.62 28.45 230.68 29.48C229.06 29.39 227.43 29.73 225.95 30.51C224.35 30.78 222.89 31.47 221.67 32.51C220.7 32.39 219.7 32.44 218.69 32.65C216.25 32.67 214 33.65 212.35 35.25C211.08 35.14 209.78 35.3 208.5 35.75C204.48 36.22 201.32 39.17 200.56 43.14C198.84 43.85 197.45 44.97 196.47 46.44C195.27 44.7 193.5 43.45 191.41 42.88C189.35 41.99 187.14 41.9 184.92 42.64C182.53 43.44 180.73 45 179.64 47.19C178.85 46.67 177.97 46.27 177.01 46C176.74 45.92 176.47 45.86 176.21 45.81C175.14 43.78 173.45 42.33 171.21 41.53C170.88 41.41 170.55 41.27 170.23 41.11C167.12 39.57 163.67 39.84 160.84 41.84C160.13 42.34 159.51 42.92 158.98 43.55C158.11 43.51 157.22 43.6 156.36 43.81C154.44 41.7 151.64 40.59 148.71 40.88C147.93 40.24 147.07 39.75 146.16 39.41C144.8 35.32 140.86 32.78 136.63 33.16C134.82 30.86 132 29.56 128.91 29.73C128.86 29.73 128.81 29.73 128.75 29.73C128.58 29.73 128.4 29.71 128.23 29.68C126.53 29.35 124.98 29.46 123.36 30.05C120.99 30.38 118.95 31.54 117.53 33.3C115.92 32.58 114.14 32.34 112.42 32.59C111.61 32.4 110.76 32.32 109.88 32.35C109.84 32.35 109.8 32.35 109.76 32.35C109.6 32.35 109.45 32.34 109.29 32.31C107.74 32.06 106.22 32.21 104.83 32.68C104.53 32.43 104.2 32.2 103.86 31.99C101.92 30.63 99.75 30.09 97.48 30.4C96.03 30.26 94.65 30.46 93.29 31.02C91.67 30.88 90.13 31.14 88.7 31.83C88.65 31.8 88.6 31.77 88.55 31.74L88.53 31.78Z" fill="#361B01"/>
</g>
<path d="M170.891 156.048C174.475 159.888 177.675 163.301 180.491 166.288C183.307 169.275 185.589 171.664 187.339 173.456C187.339 175.077 186.805 176.357 185.739 177.296C184.715 178.192 183.499 178.64 182.091 178.64C180.597 178.64 179.36 178.256 178.379 177.488C177.397 176.72 176.437 175.824 175.499 174.8L160.075 157.392L170.891 156.048ZM158.859 161.296L178.891 138.832C181.323 138.832 183.072 139.301 184.139 140.24C185.248 141.179 185.803 142.309 185.803 143.632C185.803 144.571 185.547 145.488 185.035 146.384C184.565 147.237 183.797 148.176 182.731 149.2L171.147 160.784L158.859 161.296ZM164.491 150.928V177.936C164.064 178.064 163.424 178.171 162.571 178.256C161.76 178.384 160.907 178.448 160.011 178.448C158.091 178.448 156.725 178.107 155.915 177.424C155.147 176.741 154.763 175.568 154.763 173.904V150.928H164.491ZM154.763 163.088V139.088C155.189 139.003 155.829 138.896 156.683 138.768C157.579 138.64 158.432 138.576 159.243 138.576C161.077 138.576 162.4 138.896 163.211 139.536C164.064 140.176 164.491 141.371 164.491 143.12V163.088H154.763Z" fill="#432E0E"/>
<defs>
<clipPath id="clip0_13_7811">
<rect width="321.27" height="96.51" fill="white"/>
</clipPath>
</defs>
</svg>
