<svg width="270" height="235" viewBox="0 0 270 235" fill="none" xmlns="http://www.w3.org/2000/svg">
<g clip-path="url(#clip0_13_7804)">
<path d="M32.722 209H212.858C225.878 198.199 235 184.156 235 166.028C235 102.431 184.857 12.5647 123.007 12.5647C61.1567 12.5647 11 102.431 11 166.014C11 183.966 19.9189 198.05 32.722 208.986V209Z" fill="#C0651C"/>
<path d="M164.475 93.6518C164.434 93.4618 164.394 93.2854 164.312 93.0954L125.835 9.63384C124.82 7.42212 121.18 7.42212 120.165 9.63384L81.6877 93.109C81.6065 93.299 81.5523 93.4754 81.5253 93.6653C80.1854 95.9449 79.4546 98.3737 79.4546 100.897C79.4546 113.964 98.957 124.561 123.007 124.561C147.057 124.561 166.559 113.964 166.559 100.897C166.559 98.3737 165.828 95.9449 164.488 93.6653L164.475 93.6518Z" fill="#F7B56B"/>
<path d="M122.993 20.8959C127.53 20.8959 131.208 16.2182 131.208 10.448C131.208 4.67771 127.53 0 122.993 0C118.456 0 114.778 4.67771 114.778 10.448C114.778 16.2182 118.456 20.8959 122.993 20.8959Z" fill="#5C3D20"/>
<path d="M76.3123 68.4692C78.9603 62.3018 77.7286 55.8442 73.5612 54.0457C69.3938 52.2472 63.8689 55.7888 61.2209 61.9562C58.5729 68.1235 59.8047 74.5811 63.972 76.3796C68.1394 78.1781 73.6643 74.6365 76.3123 68.4692Z" fill="#5C3D20"/>
<path d="M158.019 96.6505C158.019 96.6505 174.368 87.6408 186.616 96.6505" stroke="#5C3D20" stroke-width="2" stroke-miterlimit="10" stroke-linecap="round"/>
<path d="M60.5342 96.6505C60.5342 96.6505 76.8832 87.6408 89.1314 96.6505" stroke="#5C3D20" stroke-width="2" stroke-miterlimit="10" stroke-linecap="round"/>
<path d="M61.4951 109.134C61.4951 109.134 75.0696 96.2977 89.1855 101.942" stroke="#5C3D20" stroke-width="2" stroke-miterlimit="10" stroke-linecap="round"/>
<path d="M185.696 109.134C185.696 109.134 172.121 96.2977 158.005 101.942" stroke="#5C3D20" stroke-width="2" stroke-miterlimit="10" stroke-linecap="round"/>
<path d="M108.81 105.66C108.81 105.66 121.613 121.278 137.177 105.66" stroke="#5C3D20" stroke-width="3" stroke-miterlimit="10" stroke-linecap="round"/>
<path d="M107.24 175.634C106.292 176.326 106.644 176.964 106.861 177.615C107.28 178.796 107.741 179.949 108.092 181.143C109.676 186.544 109.662 191.971 108.187 197.385C108.079 197.806 107.971 198.24 107.754 198.62C107.186 199.638 106.252 199.76 105.48 198.891C105.074 198.43 104.777 197.874 104.425 197.344C100.229 191.035 94.9645 185.784 88.7659 181.482C88.5629 181.347 88.3599 181.13 88.1299 181.103C87.6832 181.048 87.2231 181.103 86.7629 181.103C86.8171 181.51 86.7359 181.971 86.9253 182.297C88.184 184.481 89.1043 186.761 89.4968 189.271C90.0246 192.704 89.4697 195.988 88.2381 199.176C87.575 200.899 86.5599 200.954 85.396 199.461C84.0967 197.792 82.8381 196.083 81.4712 194.468C77.1268 189.312 71.6455 185.811 65.6229 182.894C56.4605 178.47 50.7085 171.13 49.0845 160.98C47.8935 153.558 50.6679 147.371 56.1627 142.391C61.4816 137.574 67.8696 134.901 74.826 133.517C86.411 131.21 96.5209 134.467 105.345 141.997C112.613 148.198 117.539 155.919 119.637 165.349C120.801 170.587 120.909 175.865 120.138 181.157C119.921 182.69 119.677 184.223 119.42 185.757C119.366 186.123 119.244 186.489 119.123 186.842C118.879 187.507 118.581 188.267 117.783 188.158C117.268 188.09 116.7 187.616 116.362 187.168C115.658 186.218 115.171 185.119 114.453 184.183C112.518 181.659 110.529 179.189 108.525 176.733C108.16 176.286 107.632 175.974 107.213 175.621L107.24 175.634Z" fill="#F7B56B"/>
<path d="M138.747 175.634C139.694 176.326 139.342 176.964 139.126 177.615C138.706 178.796 138.246 179.949 137.894 181.143C136.311 186.544 136.324 191.971 137.799 197.385C137.908 197.806 138.016 198.24 138.232 198.62C138.801 199.638 139.735 199.76 140.506 198.891C140.912 198.43 141.21 197.874 141.562 197.344C145.757 191.035 151.022 185.784 157.221 181.482C157.424 181.347 157.627 181.13 157.857 181.103C158.303 181.048 158.763 181.103 159.224 181.103C159.169 181.51 159.251 181.971 159.061 182.297C157.802 184.481 156.882 186.761 156.49 189.271C155.962 192.704 156.517 195.988 157.748 199.176C158.412 200.899 159.427 200.954 160.59 199.461C161.89 197.792 163.148 196.083 164.515 194.468C168.86 189.312 174.341 185.811 180.364 182.894C189.526 178.47 195.278 171.13 196.902 160.98C198.093 153.558 195.319 147.371 189.824 142.391C184.505 137.574 178.117 134.901 171.16 133.517C159.575 131.21 149.466 134.467 140.641 141.997C133.374 148.198 128.447 155.919 126.35 165.349C125.186 170.587 125.077 175.865 125.849 181.157C126.065 182.69 126.309 184.223 126.566 185.757C126.62 186.123 126.742 186.489 126.864 186.842C127.108 187.507 127.405 188.267 128.204 188.158C128.718 188.09 129.287 187.616 129.625 187.168C130.329 186.218 130.816 185.119 131.533 184.183C133.468 181.659 135.458 179.189 137.461 176.733C137.826 176.286 138.354 175.974 138.774 175.621L138.747 175.634Z" fill="#F7B56B"/>
<path d="M71.8079 39.8787L85.3824 54.4108" stroke="#5C3D20" stroke-width="3" stroke-miterlimit="10" stroke-linecap="round"/>
<path d="M182.024 76.3686C186.191 74.5701 187.423 68.1124 184.775 61.9451C182.127 55.7777 176.602 52.2361 172.435 54.0346C168.267 55.8331 167.036 62.2907 169.684 68.4581C172.332 74.6254 177.857 78.1671 182.024 76.3686Z" fill="#5C3D20"/>
<path d="M174.179 39.8787L160.618 54.4108" stroke="#5C3D20" stroke-width="3" stroke-miterlimit="10" stroke-linecap="round"/>
</g>
<path fill-rule="evenodd" clip-rule="evenodd" d="M266.39 190.86C266.22 190.86 266.05 190.87 265.89 190.9C265.32 190.02 264.33 189.43 263.21 189.43C261.65 189.43 260.35 190.56 260.08 192.04C259.61 191.91 259.12 191.84 258.62 191.84C258.56 191.84 258.51 191.84 258.45 191.84C258.21 191.11 257.74 190.48 257.13 190.05C257.01 189.66 256.84 189.3 256.61 188.97C257.75 188.76 258.61 187.77 258.61 186.57C258.61 185.22 257.52 184.13 256.17 184.13C254.82 184.13 253.73 185.22 253.73 186.57C253.73 186.68 253.73 186.78 253.75 186.88C252.86 185.57 251.36 184.71 249.66 184.71C249.52 184.71 249.39 184.71 249.26 184.73C248.62 184.27 247.83 184 246.98 184C246.05 184 245.2 184.32 244.53 184.86C244.13 184.78 243.72 184.73 243.29 184.73C242.47 184.73 241.69 184.89 240.99 185.19C240.97 185.22 240.94 185.25 240.92 185.29C240.83 185.34 240.74 185.39 240.66 185.45C240.62 185.43 240.59 185.42 240.55 185.41C240.34 185.52 240.13 185.64 239.93 185.78C239.98 185.6 240.03 185.42 240.06 185.23C239.23 184.95 238.35 184.79 237.43 184.75C234.5 184.63 231.88 185.79 230.06 187.96C228.75 188.82 227.73 189.97 227.04 191.31C225.31 190.16 223.2 189.63 220.98 189.87C219.08 190.07 217.37 190.81 216.01 191.96C215.4 191.58 214.74 191.27 214.02 191.03C212.94 190.67 211.87 190.5 210.81 190.52C209.93 189.73 208.89 189.13 207.69 188.7C205.28 187.85 202.87 187.99 200.62 189.1C199.24 189.63 198.05 190.44 197.11 191.47C195.49 191.38 193.86 191.72 192.38 192.5C190.78 192.77 189.32 193.46 188.1 194.5C187.13 194.38 186.13 194.43 185.12 194.64C182.68 194.66 180.43 195.64 178.78 197.24C177.51 197.13 176.21 197.29 174.93 197.74C170.91 198.21 167.75 201.16 166.99 205.13C165.27 205.84 163.88 206.96 162.9 208.43C161.7 206.69 159.93 205.44 157.84 204.87C155.78 203.98 153.57 203.89 151.35 204.63C148.96 205.43 147.16 206.99 146.07 209.18C145.28 208.66 144.4 208.26 143.44 207.99C143.17 207.91 142.9 207.85 142.64 207.8C141.57 205.77 139.88 204.32 137.64 203.52C137.31 203.4 136.98 203.26 136.66 203.1C133.55 201.56 130.1 201.83 127.27 203.83C126.56 204.33 125.94 204.91 125.41 205.54C124.54 205.5 123.65 205.59 122.79 205.8C120.87 203.69 118.07 202.58 115.14 202.87C114.36 202.23 113.5 201.74 112.59 201.4C111.23 197.31 107.29 194.77 103.06 195.15C101.25 192.85 98.43 191.55 95.34 191.72C95.29 191.72 95.24 191.72 95.18 191.72C95.01 191.72 94.83 191.7 94.66 191.67C92.96 191.34 91.41 191.45 89.79 192.04C87.42 192.37 85.38 193.53 83.96 195.29C82.35 194.57 80.57 194.33 78.85 194.58C78.04 194.39 77.19 194.31 76.31 194.34C76.27 194.34 76.23 194.34 76.19 194.34C76.03 194.34 75.88 194.33 75.72 194.3C74.17 194.05 72.65 194.2 71.26 194.67C70.96 194.42 70.63 194.19 70.29 193.98C68.35 192.62 66.18 192.08 63.91 192.39C62.46 192.25 61.08 192.45 59.72 193.01C58.1 192.87 56.56 193.13 55.13 193.82C53.86 193.05 52.47 192.62 51.02 192.55C49.78 189.59 47.06 187.45 43.7 187.03C41.31 186.73 39.01 187.34 37.18 188.65C36.48 188.47 35.75 188.37 35 188.37C34.67 187.98 34.3 187.61 33.9 187.26C31.88 185.53 29.4 184.78 26.91 185.08C26.7 185.03 26.5 184.99 26.29 184.95C26.19 185.07 26.09 185.2 25.99 185.33C25.38 185.21 24.75 185.15 24.11 185.15C22.95 185.15 21.84 185.35 20.81 185.73C20.61 185.83 20.42 185.93 20.23 186.04C20.17 186.04 20.1 186.04 20.04 186.05C19.76 186.18 19.48 186.33 19.21 186.48C19.09 186.39 18.96 186.3 18.82 186.23C18.39 186.33 17.96 186.46 17.55 186.63C17.51 186.52 17.46 186.42 17.41 186.31C17.38 186.2 17.34 186.1 17.31 185.99C16.19 186.15 15.31 187.04 15.16 188.15C14.54 187.67 13.77 187.38 12.92 187.38C10.91 187.38 9.29 189.01 9.29 191.01C9.29 191.91 9.62 192.73 10.16 193.37C9.39 193.77 8.73 194.35 8.23 195.05C7.91 194.71 7.49 194.45 7.02 194.32C7.17 193.92 7.26 193.48 7.26 193.03C7.26 191.02 5.63 189.4 3.63 189.4C1.63 189.4 0 191.03 0 193.03C0 195.03 1.63 196.66 3.63 196.66C3.63 196.73 3.63 196.81 3.63 196.88C3.63 198.35 4.82 199.54 6.29 199.54C6.68 199.54 7.05 199.46 7.39 199.3C7.93 201.68 10.06 203.46 12.6 203.46C13.46 203.46 14.28 203.26 15 202.89C15.07 204.41 16.33 205.63 17.87 205.63C17.91 205.63 17.96 205.63 18 205.63C18.6 207.46 20.33 208.78 22.36 208.78C24.15 208.78 25.69 207.76 26.45 206.27C26.89 206.98 27.53 207.56 28.29 207.91C28.6 211.37 31.5 214.08 35.04 214.08C35.37 214.08 35.7 214.06 36.01 214.01C36.29 214.06 36.58 214.08 36.87 214.08C38.88 214.08 40.62 212.97 41.53 211.34C42.26 213.73 44.48 215.47 47.11 215.47C49.46 215.47 51.49 214.08 52.41 212.07C53.06 212.41 53.79 212.61 54.57 212.61C56.51 212.61 58.17 211.41 58.85 209.71C59.07 209.83 59.3 209.93 59.54 210.01C59.6 210.73 59.83 211.4 60.2 211.98C60.56 213.25 61.72 214.18 63.1 214.18C63.37 214.18 63.63 214.14 63.88 214.08C63.91 214.08 63.95 214.08 63.98 214.08C65.09 214.08 66.1 213.68 66.88 213.01C67.54 213.57 68.39 213.9 69.31 213.9C69.36 213.9 69.41 213.9 69.46 213.9C69.18 214.42 69.03 215.02 69.03 215.65C69.03 217.73 70.72 219.41 72.79 219.41C74.75 219.41 76.37 217.9 76.54 215.99C76.99 216.12 77.47 216.18 77.96 216.18C78.08 216.18 78.19 216.18 78.31 216.17C78.31 216.24 78.33 216.3 78.34 216.37C77.26 217.21 76.56 218.52 76.56 219.99C76.56 222.52 78.61 224.57 81.14 224.57C83.67 224.57 85.72 222.52 85.72 219.99C85.72 219.56 85.66 219.15 85.55 218.76C86.15 218.99 86.8 219.14 87.47 219.2C87.94 222.32 90.09 224.88 92.97 225.95C93.9 229.27 96.95 231.7 100.56 231.7C104.17 231.7 107.15 229.32 108.12 226.06C108.52 226.02 108.89 225.88 109.22 225.68C109.41 226.19 109.68 226.66 110.01 227.09C109.99 227.27 109.99 227.46 109.99 227.64C109.99 231.16 112.85 234.02 116.37 234.02C119.37 234.02 121.89 231.95 122.57 229.16C123.29 229.87 124.28 230.31 125.38 230.31C127.59 230.31 129.38 228.52 129.38 226.31C129.38 225.66 129.23 225.05 128.95 224.51C129.62 224.27 130.28 223.99 130.92 223.67C130.9 223.84 130.89 224.02 130.89 224.19C130.89 226.6 132.84 228.55 135.25 228.55C136.55 228.55 137.72 227.98 138.52 227.08C139.47 227.66 140.59 228 141.79 228C144.31 228 146.49 226.52 147.49 224.37C147.98 224.47 148.48 224.53 148.99 224.53C151.01 224.53 152.83 223.7 154.13 222.37C154.71 222.75 155.41 222.97 156.15 222.97C158.21 222.97 159.88 221.3 159.88 219.24C159.88 218.55 159.69 217.9 159.36 217.35C159.46 217.13 159.54 216.9 159.61 216.66C160.05 216.74 160.51 216.78 160.97 216.78C162.78 216.78 164.45 216.18 165.79 215.17C166.63 214.82 167.3 214.12 167.61 213.26C167.84 213.27 168.06 213.28 168.29 213.28C169.07 213.28 169.83 213.2 170.57 213.06C171.14 213.28 171.75 213.43 172.38 213.51C173.25 216.12 175.71 218 178.61 218C180.44 218 182.09 217.25 183.28 216.04C183.72 216.47 184.32 216.73 184.98 216.73C185.71 216.73 186.36 216.41 186.81 215.9C186.96 215.9 187.12 215.9 187.27 215.9C187.92 215.9 188.56 215.85 189.18 215.75C189.6 216.78 190.62 217.51 191.8 217.51C192.69 217.51 193.48 217.1 194 216.47C194.39 216.67 194.83 216.79 195.29 216.79C196.77 216.79 197.99 215.62 198.05 214.15C198.18 214.07 198.31 213.99 198.43 213.9C198.76 213.98 199.11 214.03 199.46 214.03C199.76 214.03 200.06 214 200.34 213.94C201.26 214.39 202.29 214.65 203.38 214.65C203.76 214.65 204.12 214.62 204.48 214.56C205.61 215.35 206.98 215.81 208.47 215.81C210.21 215.81 211.8 215.17 213.02 214.12C213.52 214.24 214.04 214.31 214.57 214.31C217.9 214.31 220.63 211.77 220.92 208.52C221.42 209.93 222.77 210.93 224.34 210.93C224.51 210.93 224.68 210.92 224.84 210.9C225.09 210.94 225.34 210.96 225.6 210.96C226.73 210.96 227.76 210.58 228.59 209.95C229.3 210.91 230.45 211.54 231.74 211.54C233.91 211.54 235.66 209.78 235.66 207.62C235.66 207.28 235.62 206.94 235.53 206.62C235.95 206.8 236.41 206.9 236.9 206.9C237.55 206.9 238.16 206.72 238.67 206.41C239.36 207.23 240.39 207.75 241.55 207.75C241.9 207.75 242.25 207.7 242.57 207.61C243.83 208.68 245.46 209.33 247.24 209.33C251.12 209.33 254.29 206.26 254.45 202.41C254.61 202.09 254.74 201.75 254.83 201.4C255.81 202.3 257.12 202.85 258.56 202.85C261.61 202.85 264.08 200.38 264.08 197.33C264.08 196.76 263.99 196.2 263.83 195.69C264.39 196.47 265.3 196.98 266.33 196.98C268.03 196.98 269.4 195.6 269.4 193.91C269.4 192.22 268.02 190.84 266.33 190.84L266.39 190.86Z" fill="#8C4A08"/>
<defs>
<clipPath id="clip0_13_7804">
<rect width="224" height="209" fill="white" transform="translate(11)"/>
</clipPath>
</defs>
</svg>
