<svg width="75" height="65" viewBox="0 0 75 65" fill="none" xmlns="http://www.w3.org/2000/svg">
<path fill-rule="evenodd" clip-rule="evenodd" d="M54.9799 56.0091L74.3864 44.4137L63.0876 41.6184C65.5262 33.166 64.4528 23.9318 59.8871 16.2905C50.9006 1.2504 31.3305 -3.68035 16.2904 5.30615C1.25034 14.2926 -3.68041 33.8627 5.30609 48.9028C11.901 59.9403 24.4178 65.8758 37.179 64.094L36.0308 55.9743C26.5659 57.3502 17.2328 52.8866 12.341 44.6994C5.67357 33.5406 9.33502 19.0084 20.4938 12.341C31.6526 5.67363 46.1848 9.33508 52.8522 20.4939C56.2946 26.2552 57.0087 33.2352 55.107 39.5561L43.3844 36.6026L54.9799 56.0091Z" fill="#402D1C"/>
</svg>
